<svg width="1920" height="1080" viewBox="0 0 1920 1080" fill="none" xmlns="http://www.w3.org/2000/svg">
<path fill-rule="evenodd" clip-rule="evenodd" d="M1920 1080H0V0H1920V1080ZM964.4 490C956.134 490 948.8 492.129 942.4 496.386C936.089 500.643 931.111 506.576 927.467 514.185C923.822 521.793 922 530.671 922 540.815C922 551.141 923.734 559.973 927.2 567.31C930.756 574.646 935.689 580.262 942 584.157C948.4 588.052 955.822 590 964.267 590C970.044 590 974.756 589.14 978.4 587.419C982.134 585.607 985.645 583.524 988.934 581.169C990.889 579.901 992.266 579.765 993.066 580.761C993.955 581.757 994.578 584.203 994.934 588.098H998C997.822 584.656 997.688 580.444 997.6 575.462C997.511 570.389 997.467 563.732 997.467 555.489H994.4C993.778 561.014 993.067 565.317 992.267 568.396C991.556 571.476 990.222 574.329 988.267 576.956C985.778 580.579 982.356 583.206 978 584.837C973.644 586.467 969.467 587.282 965.467 587.282C961.2 587.282 957.2 586.287 953.467 584.294C949.822 582.211 946.622 579.176 943.866 575.19C941.2 571.205 939.111 566.314 937.6 560.517C936.089 554.629 935.333 547.88 935.333 540.271C935.333 532.935 936 526.322 937.333 520.435C938.755 514.547 940.711 509.52 943.2 505.354C945.778 501.187 948.8 498.017 952.267 495.843C955.822 493.578 959.778 492.445 964.134 492.445C968.756 492.445 973.155 493.306 977.333 495.027C981.511 496.658 984.978 499.33 987.733 503.044C988.978 504.674 989.956 506.304 990.667 507.935C991.467 509.565 992.134 511.558 992.667 513.913C993.2 516.178 993.778 519.258 994.4 523.152H997.467C997.467 515.272 997.511 508.932 997.6 504.131C997.688 499.33 997.822 495.254 998 491.902H994.934C994.578 495.797 993.911 498.288 992.934 499.375C992.045 500.371 990.711 500.19 988.934 498.831C986 496.476 982.622 494.439 978.8 492.718C975.067 490.906 970.267 490 964.4 490Z" fill="#11100D"/>
<path d="M978.818 539.977C978.818 543.83 975.725 546.953 971.909 546.953C968.093 546.953 965 543.83 965 539.977C965 536.124 968.093 533 971.909 533C975.725 533 978.818 536.124 978.818 539.977Z" fill="#C3A342"/>
</svg>
