<svg width="116" height="153" viewBox="0 0 116 153" fill="none" xmlns="http://www.w3.org/2000/svg">
<path d="M64.7158 0.5C73.6235 0.500003 80.8677 1.8797 86.4756 4.60742L86.4893 4.61328C92.2887 7.23088 97.4071 10.3276 101.848 13.9014V13.9023L101.857 13.9092C103.242 14.9702 104.512 15.6187 105.655 15.7744C106.837 15.9353 107.851 15.5633 108.641 14.6758L108.64 14.6748C109.464 13.7555 110.116 12.2975 110.632 10.3672C111.124 8.52327 111.502 6.20167 111.772 3.41016H115.475C115.217 8.44387 115.021 14.5109 114.89 21.6104C114.756 28.858 114.688 38.3957 114.687 50.2227H110.931C110.124 45.1953 109.367 41.0656 108.656 37.8369L108.347 36.4727C107.529 32.8537 106.503 29.7736 105.265 27.2393C104.161 24.7034 102.647 22.1746 100.728 19.6533H100.727C96.4674 13.9014 91.1025 9.75467 84.6377 7.22559C78.2019 4.56943 71.4241 3.24219 64.3086 3.24219C57.5699 3.24222 51.4398 4.99927 45.9307 8.51562C40.5632 11.8896 35.8993 16.8004 31.9326 23.2275L31.9287 23.2344C28.0987 29.6617 25.0967 37.4028 22.917 46.4482L22.916 46.4551C20.8712 55.5061 19.8506 65.661 19.8506 76.916C19.8506 88.5889 21.0072 98.9565 23.3262 108.014V108.016C25.6433 116.926 28.8522 124.464 32.96 130.618L32.9639 130.625C37.2056 136.775 42.1425 141.473 47.7793 144.703L47.7861 144.706L47.792 144.71C53.5634 147.798 59.7499 149.343 66.3438 149.343C72.5179 149.343 78.9543 148.081 85.6494 145.568C92.3876 143.04 97.6955 138.958 101.556 133.325C104.571 129.261 106.633 124.843 107.733 120.072C108.942 115.41 110.012 108.948 110.951 100.698H114.687C114.688 111.512 114.739 120.526 114.842 127.74L114.89 130.766C115.021 138.14 115.217 144.415 115.476 149.59H111.772C111.504 146.802 111.144 144.499 110.685 142.69C110.205 140.8 109.603 139.386 108.843 138.531C108.118 137.64 107.122 137.261 105.928 137.379C104.76 137.494 103.408 138.081 101.889 139.068L101.879 139.075L101.87 139.082C96.8738 142.668 91.5386 145.841 85.8652 148.601C80.3928 151.19 73.2843 152.5 64.5127 152.5C52.1043 152.5 41.1712 149.722 31.6992 144.18L30.7871 143.635C21.5424 137.915 14.2453 129.744 8.89844 119.104L8.38672 118.066C3.13569 106.924 0.5 93.4896 0.5 77.7471C0.500026 62.2853 3.27054 48.7803 8.79492 37.2188C14.3229 25.6498 21.8642 16.6448 31.4141 10.1865C41.0941 3.73184 52.1893 0.5 64.7158 0.5Z" stroke="#ECE6D8"/>
<path d="M68 76.5C68 82.299 63.299 87 57.5 87C51.701 87 47 82.299 47 76.5C47 70.701 51.701 66 57.5 66C63.299 66 68 70.701 68 76.5Z" fill="#7A5F0E"/>
</svg>
