<svg width="76" height="100" viewBox="0 0 76 100" fill="none" xmlns="http://www.w3.org/2000/svg">
<path d="M42.4004 0.5C48.2205 0.50004 52.939 1.39919 56.582 3.16699L56.5879 3.16992L56.5947 3.17285C60.3827 4.87845 63.7233 6.8959 66.6201 9.22168L66.6299 9.22852C67.5471 9.92952 68.4073 10.3738 69.1992 10.4814C70.0291 10.5942 70.7495 10.3304 71.3057 9.70703C71.8727 9.07585 72.3093 8.09177 72.6494 6.82129C72.9659 5.63863 73.21 4.16308 73.3867 2.40234H75.4756C75.311 5.65866 75.184 9.56514 75.0996 14.1211C75.0125 18.8242 74.9696 25.0017 74.9678 32.6523H72.8252C72.3053 29.4305 71.8161 26.7762 71.3564 24.6924L71.1533 23.7988C70.6816 21.7167 70.1041 19.9018 69.417 18.3594L69.1152 17.7148C68.4781 16.2585 67.6367 14.8075 66.5928 13.3623L66.1309 12.7402C63.3234 8.95841 59.7853 6.22966 55.5225 4.56445H55.5234C51.2841 2.81815 46.8195 1.94537 42.1338 1.94531C37.6876 1.94531 33.6388 3.10278 30.001 5.41895C26.4581 7.6407 23.3845 10.8709 20.7744 15.0898L20.7705 15.0967C18.2503 19.3157 16.2789 24.3924 14.8477 30.3174L14.8457 30.3242C13.5026 36.2548 12.833 42.9051 12.833 50.2715C12.833 57.9121 13.5915 64.7037 15.1152 70.6406L15.1162 70.6426C16.6381 76.4808 18.7468 81.4269 21.4512 85.4688L21.4551 85.4746C24.2466 89.5121 27.5001 92.6018 31.2188 94.7275L31.2246 94.7314L31.2314 94.7344C35.0378 96.7661 39.1187 97.7822 43.4668 97.7822C47.5353 97.7822 51.7724 96.9536 56.1748 95.3057C60.6144 93.6438 64.1184 90.9597 66.668 87.2549C68.6604 84.5785 70.023 81.6668 70.751 78.5225C71.538 75.4928 72.2335 71.3114 72.8447 65.9893H74.9678C74.9695 74.003 75.0125 80.4972 75.0996 85.4707C75.1841 90.2055 75.3116 94.2481 75.4766 97.5977H73.3867C73.2118 95.8405 72.9796 94.3784 72.6846 93.2188C72.3683 91.9759 71.9663 91.0183 71.4395 90.4277C70.9249 89.8 70.2151 89.5362 69.3838 89.6182C68.5787 89.6977 67.6656 90.0976 66.6611 90.749L66.6514 90.7549L66.6426 90.7617C63.5813 92.9538 60.3249 94.9092 56.874 96.6279L56.1816 96.9688C52.6271 98.6461 47.9976 99.5 42.2666 99.5C33.9019 99.5 26.5718 97.5719 20.2598 93.7305C14.2333 90.0105 9.47323 84.6957 5.9834 77.7676L5.65039 77.0918C2.22401 69.8381 0.500023 61.085 0.5 50.8154C0.5 40.7303 2.3117 31.9294 5.91797 24.4004C9.52816 16.8634 14.4494 11.0019 20.6787 6.7998C26.9899 2.60233 34.2255 0.5 42.4004 0.5Z" stroke="#ECE6D8"/>
<path d="M44.8182 49.9767C44.8182 53.8299 41.7249 56.9535 37.9091 56.9535C34.0933 56.9535 31 53.8299 31 49.9767C31 46.1236 34.0933 43 37.9091 43C41.7249 43 44.8182 46.1236 44.8182 49.9767Z" fill="#C3A342"/>
</svg>
