<svg width="927" height="158" viewBox="0 0 927 158" fill="none" xmlns="http://www.w3.org/2000/svg">
<path d="M73 78.5C73 84.8513 67.8513 90 61.5 90C55.1487 90 50 84.8513 50 78.5C50 72.1487 55.1487 67 61.5 67C67.8513 67 73 72.1487 73 78.5Z" fill="#7A5F0E"/>
<path d="M68.2944 0C77.744 0 85.4754 1.43116 91.4888 4.29349C97.6453 7.01269 103.086 10.2328 107.811 13.9538C110.674 16.1006 112.822 16.3868 114.254 14.8125C115.829 13.0951 116.902 9.15943 117.475 3.00545H122.415C122.128 8.30074 121.913 14.741 121.77 22.3261C121.627 29.9112 121.556 39.9294 121.556 52.3804H116.616C115.614 46.2265 114.683 41.3605 113.824 37.7826C112.965 34.0616 111.891 30.913 110.603 28.337C109.457 25.7609 107.882 23.1848 105.878 20.6087C101.439 14.7409 95.8556 10.519 89.1264 7.94293C82.3972 5.22373 75.31 3.86413 67.8649 3.86413C60.8493 3.86413 54.4781 5.65308 48.7511 9.23099C43.1672 12.6658 38.2993 17.6748 34.1472 24.2582C30.1383 30.8415 26.9885 38.7844 24.6977 48.087C22.5501 57.3895 21.4762 67.837 21.4762 79.4293C21.4762 91.4511 22.6932 102.113 25.1272 111.416C27.5612 120.575 30.9258 128.303 35.221 134.601C39.6595 140.898 44.8138 145.692 50.6839 148.984C56.6973 152.132 63.1401 153.707 70.0125 153.707C76.4554 153.707 83.1846 152.418 90.2002 149.842C97.2158 147.266 102.728 143.116 106.737 137.391C109.887 133.241 112.034 128.733 113.18 123.867C114.468 119.001 115.614 112.203 116.616 103.473H121.556C121.556 116.496 121.627 127.015 121.77 135.03C121.913 142.901 122.128 149.556 122.415 154.995H117.475C116.902 148.841 115.9 144.976 114.468 143.402C113.18 141.828 110.961 142.043 107.811 144.046C102.513 147.767 96.8578 151.059 90.8445 153.921C84.9743 156.64 77.386 158 68.0797 158C54.4781 158 42.523 154.923 32.2144 148.769C22.0489 142.615 14.1027 133.742 8.37573 122.149C2.79191 110.557 0 96.6033 0 80.288C0 64.2591 2.93509 50.2337 8.80526 38.212C14.6754 26.1902 22.6932 16.8161 32.8586 10.0897C43.1672 3.36323 54.9792 0 68.2944 0Z" fill="#11100D"/>
<path d="M205.845 1.93207L258.247 136.962C260.394 142.4 262.828 146.05 265.549 147.91C268.269 149.628 270.775 150.558 273.065 150.701V154.995C270.202 154.708 266.694 154.565 262.542 154.565C258.39 154.422 254.238 154.351 250.086 154.351C244.502 154.351 239.276 154.422 234.408 154.565C229.54 154.565 225.603 154.708 222.596 154.995V150.701C229.898 150.415 234.551 149.198 236.556 147.052C238.56 144.762 238.131 139.967 235.267 132.668L195.321 25.9756L198.758 23.1848L161.389 120.217C159.098 125.942 157.738 130.808 157.308 134.815C156.879 138.679 157.237 141.756 158.382 144.046C159.671 146.336 161.747 147.982 164.61 148.984C167.617 149.986 171.34 150.558 175.778 150.701V154.995C171.769 154.708 167.545 154.565 163.107 154.565C158.812 154.422 154.803 154.351 151.08 154.351C147.501 154.351 144.423 154.422 141.846 154.565C139.412 154.565 137.121 154.708 134.973 154.995V150.701C137.837 149.986 140.772 148.34 143.778 145.764C146.785 143.044 149.505 138.465 151.939 132.024L202.409 1.93207C202.981 1.93207 203.554 1.93207 204.127 1.93207C204.699 1.93207 205.272 1.93207 205.845 1.93207ZM232.046 93.1685V97.462H168.047L170.194 93.1685H232.046Z" fill="#11100D"/>
<path d="M411.448 3.00545V7.29892C406.58 7.44203 402.857 8.15761 400.28 9.44566C397.846 10.7337 396.2 12.8089 395.341 15.6712C394.482 18.5335 394.052 22.6123 394.052 27.9076V156.068C393.193 156.068 392.334 156.068 391.475 156.068C390.759 156.068 389.972 156.068 389.113 156.068L298.912 16.7446V130.092C298.912 135.245 299.342 139.323 300.201 142.329C301.203 145.191 303.064 147.266 305.785 148.554C308.648 149.699 312.872 150.415 318.456 150.701V154.995C315.879 154.708 312.514 154.565 308.362 154.565C304.21 154.422 300.272 154.351 296.55 154.351C292.971 154.351 289.32 154.422 285.597 154.565C282.018 154.565 279.011 154.708 276.577 154.995V150.701C281.445 150.415 285.096 149.699 287.53 148.554C290.107 147.266 291.825 145.191 292.684 142.329C293.543 139.323 293.973 135.245 293.973 130.092V25.7609C293.973 20.4656 293.543 16.6015 292.684 14.1685C291.825 11.5924 290.107 9.87501 287.53 9.01632C285.096 8.0145 281.445 7.44203 276.577 7.29892V3.00545C279.011 3.14856 282.018 3.29168 285.597 3.43479C289.32 3.5779 292.971 3.64946 296.55 3.64946C299.7 3.64946 302.706 3.5779 305.57 3.43479C308.433 3.29168 311.011 3.14856 313.301 3.00545L389.113 119.788V27.9076C389.113 22.6123 388.611 18.5335 387.609 15.6712C386.75 12.8089 384.889 10.7337 382.025 9.44566C379.305 8.15761 375.153 7.44203 369.569 7.29892V3.00545C372.146 3.14856 375.511 3.29168 379.663 3.43479C383.958 3.5779 387.896 3.64946 391.475 3.64946C395.197 3.64946 398.848 3.5779 402.428 3.43479C406.15 3.29168 409.157 3.14856 411.448 3.00545Z" fill="#11100D"/>
<path d="M546.33 3.00545C545.758 8.44385 545.328 13.7391 545.042 18.8913C544.899 23.9004 544.827 27.7645 544.827 30.4837C544.827 33.9185 544.899 37.1386 545.042 40.144C545.185 43.1495 545.328 45.7971 545.471 48.087H540.532C539.53 38.0688 538.169 30.1975 536.451 24.4728C534.733 18.6051 531.726 14.3832 527.431 11.8071C523.136 9.23098 516.478 7.94293 507.458 7.94293H495.861V130.092C495.861 135.817 496.362 140.111 497.365 142.973C498.51 145.835 500.658 147.767 503.807 148.769C506.957 149.771 511.539 150.415 517.552 150.701V154.995C513.83 154.708 509.105 154.565 503.378 154.565C497.651 154.422 491.852 154.351 485.982 154.351C479.539 154.351 473.454 154.422 467.727 154.565C462.143 154.565 457.633 154.708 454.197 154.995V150.701C460.211 150.415 464.792 149.771 467.942 148.769C471.092 147.767 473.168 145.835 474.17 142.973C475.316 140.111 475.888 135.817 475.888 130.092V7.94293H464.291C455.414 7.94293 448.757 9.23098 444.318 11.8071C440.023 14.3832 437.016 18.6051 435.298 24.4728C433.58 30.1975 432.22 38.0688 431.218 48.087H426.278C426.565 45.7971 426.708 43.1495 426.708 40.144C426.851 37.1386 426.922 33.9185 426.922 30.4837C426.922 27.7645 426.779 23.9004 426.493 18.8913C426.35 13.7391 425.992 8.44385 425.419 3.00545C431.432 3.14856 437.947 3.29168 444.962 3.43479C452.121 3.5779 459.28 3.64946 466.439 3.64946C473.597 3.64946 480.112 3.64946 485.982 3.64946C491.852 3.64946 498.295 3.64946 505.311 3.64946C512.469 3.64946 519.628 3.5779 526.787 3.43479C533.946 3.29168 540.46 3.14856 546.33 3.00545Z" fill="#11100D"/>
<path d="M611.88 1.93207L664.282 136.962C666.429 142.4 668.863 146.05 671.584 147.91C674.304 149.628 676.81 150.558 679.1 150.701V154.995C676.237 154.708 672.729 154.565 668.577 154.565C664.425 154.422 660.273 154.351 656.121 154.351C650.537 154.351 645.311 154.422 640.443 154.565C635.575 154.565 631.638 154.708 628.631 154.995V150.701C635.933 150.415 640.586 149.198 642.591 147.052C644.595 144.762 644.166 139.967 641.302 132.668L601.356 25.9756L604.793 23.1848L567.424 120.217C565.133 125.942 563.773 130.808 563.344 134.815C562.914 138.679 563.272 141.756 564.417 144.046C565.706 146.336 567.782 147.982 570.645 148.984C573.652 149.986 577.375 150.558 581.813 150.701V154.995C577.804 154.708 573.581 154.565 569.142 154.565C564.847 154.422 560.838 154.351 557.115 154.351C553.536 154.351 550.458 154.422 547.881 154.565C545.447 154.565 543.156 154.708 541.008 154.995V150.701C543.872 149.986 546.807 148.34 549.813 145.764C552.82 143.044 555.54 138.465 557.974 132.024L608.444 1.93207C609.016 1.93207 609.589 1.93207 610.162 1.93207C610.734 1.93207 611.307 1.93207 611.88 1.93207ZM638.081 93.1685V97.462H574.082L576.229 93.1685H638.081Z" fill="#11100D"/>
<path d="M794.23 3.00545C793.657 8.44385 793.228 13.7391 792.941 18.8913C792.798 23.9004 792.727 27.7645 792.727 30.4837C792.727 33.9185 792.798 37.1386 792.941 40.144C793.084 43.1495 793.228 45.7971 793.371 48.087H788.431C787.429 38.0688 786.069 30.1975 784.351 24.4728C782.633 18.6051 779.626 14.3832 775.331 11.8071C771.036 9.23098 764.378 7.94293 755.358 7.94293H743.761V130.092C743.761 135.817 744.262 140.111 745.264 142.973C746.409 145.835 748.557 147.767 751.707 148.769C754.857 149.771 759.438 150.415 765.452 150.701V154.995C761.729 154.708 757.004 154.565 751.277 154.565C745.55 154.422 739.752 154.351 733.882 154.351C727.439 154.351 721.354 154.422 715.627 154.565C710.043 154.565 705.533 154.708 702.097 154.995V150.701C708.11 150.415 712.692 149.771 715.842 148.769C718.991 147.767 721.067 145.835 722.07 142.973C723.215 140.111 723.788 135.817 723.788 130.092V7.94293H712.191C703.314 7.94293 696.656 9.23098 692.218 11.8071C687.922 14.3832 684.916 18.6051 683.198 24.4728C681.48 30.1975 680.119 38.0688 679.117 48.087H674.178C674.464 45.7971 674.607 43.1495 674.607 40.144C674.75 37.1386 674.822 33.9185 674.822 30.4837C674.822 27.7645 674.679 23.9004 674.392 18.8913C674.249 13.7391 673.891 8.44385 673.319 3.00545C679.332 3.14856 685.846 3.29168 692.862 3.43479C700.021 3.5779 707.18 3.64946 714.338 3.64946C721.497 3.64946 728.011 3.64946 733.882 3.64946C739.752 3.64946 746.195 3.64946 753.21 3.64946C760.369 3.64946 767.528 3.5779 774.686 3.43479C781.845 3.29168 788.36 3.14856 794.23 3.00545Z" fill="#11100D"/>
<path d="M859.779 1.93207L912.181 136.962C914.329 142.4 916.763 146.05 919.483 147.91C922.204 149.628 924.709 150.558 927 150.701V154.995C924.137 154.708 920.629 154.565 916.477 154.565C912.325 154.422 908.172 154.351 904.02 154.351C898.437 154.351 893.211 154.422 888.343 154.565C883.475 154.565 879.538 154.708 876.531 154.995V150.701C883.833 150.415 888.486 149.198 890.49 147.052C892.495 144.762 892.065 139.967 889.202 132.668L849.256 25.9756L852.692 23.1848L815.324 120.217C813.033 125.942 811.673 130.808 811.243 134.815C810.814 138.679 811.171 141.756 812.317 144.046C813.605 146.336 815.681 147.982 818.545 148.984C821.552 149.986 825.274 150.558 829.713 150.701V154.995C825.704 154.708 821.48 154.565 817.042 154.565C812.746 154.422 808.738 154.351 805.015 154.351C801.436 154.351 798.357 154.422 795.78 154.565C793.346 154.565 791.055 154.708 788.908 154.995V150.701C791.771 149.986 794.706 148.34 797.713 145.764C800.72 143.044 803.44 138.465 805.874 132.024L856.343 1.93207C856.916 1.93207 857.489 1.93207 858.061 1.93207C858.634 1.93207 859.207 1.93207 859.779 1.93207ZM885.98 93.1685V97.462H821.981L824.129 93.1685H885.98Z" fill="#11100D"/>
</svg>
