<svg width="555" height="97" viewBox="0 0 555 97" fill="none" xmlns="http://www.w3.org/2000/svg">
<path d="M44.8182 47.9767C44.8182 51.8299 41.7249 54.9535 37.9091 54.9535C34.0933 54.9535 31 51.8299 31 47.9767C31 44.1236 34.0933 41 37.9091 41C41.7249 41 44.8182 44.1236 44.8182 47.9767Z" fill="#C3A342"/>
<mask id="path-2-outside-1_900_58" maskUnits="userSpaceOnUse" x="0" y="0" width="555" height="97" fill="black">
<rect fill="white" width="555" height="97"/>
<path d="M41.704 1C47.336 1 51.944 1.85334 55.528 3.56001C59.1973 5.18134 62.44 7.10134 65.256 9.32001C66.9627 10.6 68.2427 10.7707 69.096 9.832C70.0347 8.808 70.6747 6.46134 71.016 2.79201H73.96C73.7893 5.94934 73.6613 9.78934 73.576 14.312C73.4907 18.8347 73.448 24.808 73.448 32.232H70.504C69.9067 28.5627 69.352 25.6613 68.84 23.528C68.328 21.3093 67.688 19.432 66.92 17.896C66.2373 16.36 65.2987 14.824 64.104 13.288C61.4587 9.78933 58.1307 7.272 54.12 5.736C50.1093 4.11467 45.8853 3.304 41.448 3.304C37.2667 3.304 33.4693 4.37067 30.056 6.50401C26.728 8.552 23.8267 11.5387 21.352 15.464C18.9627 19.3893 17.0853 24.1253 15.72 29.672C14.44 35.2187 13.8 41.448 13.8 48.36C13.8 55.528 14.5253 61.8853 15.976 67.432C17.4267 72.8933 19.432 77.5013 21.992 81.256C24.6373 85.0107 27.7093 87.8693 31.208 89.832C34.792 91.7093 38.632 92.648 42.728 92.648C46.568 92.648 50.5787 91.88 54.76 90.344C58.9413 88.808 62.2267 86.3333 64.616 82.92C66.4933 80.4453 67.7733 77.7573 68.456 74.856C69.224 71.9547 69.9067 67.9013 70.504 62.696H73.448C73.448 70.4613 73.4907 76.7333 73.576 81.512C73.6613 86.2053 73.7893 90.1733 73.96 93.416H71.016C70.6747 89.7467 70.0773 87.4427 69.224 86.504C68.456 85.5653 67.1333 85.6933 65.256 86.888C62.0987 89.1067 58.728 91.0693 55.144 92.776C51.6453 94.3973 47.1227 95.208 41.576 95.208C33.4693 95.208 26.344 93.3733 20.2 89.704C14.1413 86.0347 9.40533 80.744 5.992 73.832C2.664 66.92 1 58.6 1 48.872C1 39.3147 2.74933 30.952 6.248 23.784C9.74667 16.616 14.5253 11.0267 20.584 7.01601C26.728 3.00534 33.768 1 41.704 1Z"/>
<path d="M123.685 2.152L154.917 82.664C156.197 85.9067 157.648 88.0827 159.269 89.192C160.89 90.216 162.384 90.7707 163.749 90.856V93.416C162.042 93.2453 159.952 93.16 157.477 93.16C155.002 93.0747 152.528 93.032 150.053 93.032C146.725 93.032 143.61 93.0747 140.709 93.16C137.808 93.16 135.461 93.2453 133.669 93.416V90.856C138.021 90.6853 140.794 89.96 141.989 88.68C143.184 87.3147 142.928 84.456 141.221 80.104L117.413 16.488L119.461 14.824L97.189 72.68C95.8237 76.0933 95.013 78.9947 94.757 81.384C94.501 83.688 94.7143 85.5227 95.397 86.888C96.165 88.2533 97.4023 89.2347 99.109 89.832C100.901 90.4293 103.12 90.7707 105.765 90.856V93.416C103.376 93.2453 100.858 93.16 98.213 93.16C95.653 93.0747 93.2637 93.032 91.045 93.032C88.9117 93.032 87.077 93.0747 85.541 93.16C84.0903 93.16 82.725 93.2453 81.445 93.416V90.856C83.1517 90.4293 84.901 89.448 86.693 87.912C88.485 86.2907 90.1063 83.56 91.557 79.72L121.637 2.152C121.978 2.152 122.32 2.152 122.661 2.152C123.002 2.152 123.344 2.152 123.685 2.152ZM139.301 56.552V59.112H101.157L102.437 56.552H139.301Z"/>
<path d="M246.226 2.79201V5.35201C243.325 5.43734 241.106 5.864 239.57 6.632C238.119 7.4 237.138 8.63734 236.626 10.344C236.114 12.0507 235.858 14.4827 235.858 17.64V94.056C235.346 94.056 234.834 94.056 234.322 94.056C233.895 94.056 233.426 94.056 232.914 94.056L179.154 10.984V78.568C179.154 81.64 179.41 84.072 179.922 85.864C180.519 87.5707 181.629 88.808 183.25 89.576C184.957 90.2587 187.474 90.6853 190.802 90.856V93.416C189.266 93.2453 187.261 93.16 184.786 93.16C182.311 93.0747 179.965 93.032 177.746 93.032C175.613 93.032 173.437 93.0747 171.218 93.16C169.085 93.16 167.293 93.2453 165.842 93.416V90.856C168.743 90.6853 170.919 90.2587 172.37 89.576C173.906 88.808 174.93 87.5707 175.442 85.864C175.954 84.072 176.21 81.64 176.21 78.568V16.36C176.21 13.2027 175.954 10.8987 175.442 9.44801C174.93 7.91201 173.906 6.88801 172.37 6.37601C170.919 5.77867 168.743 5.43734 165.842 5.35201V2.79201C167.293 2.87734 169.085 2.96267 171.218 3.048C173.437 3.13334 175.613 3.176 177.746 3.176C179.623 3.176 181.415 3.13334 183.122 3.048C184.829 2.96267 186.365 2.87734 187.73 2.79201L232.914 72.424V17.64C232.914 14.4827 232.615 12.0507 232.018 10.344C231.506 8.63734 230.397 7.4 228.69 6.632C227.069 5.864 224.594 5.43734 221.266 5.35201V2.79201C222.802 2.87734 224.807 2.96267 227.282 3.048C229.842 3.13334 232.189 3.176 234.322 3.176C236.541 3.176 238.717 3.13334 240.85 3.048C243.069 2.96267 244.861 2.87734 246.226 2.79201Z"/>
<path d="M326.617 2.79201C326.276 6.03467 326.02 9.19201 325.849 12.264C325.764 15.2507 325.721 17.5547 325.721 19.176C325.721 21.224 325.764 23.144 325.849 24.936C325.934 26.728 326.02 28.3067 326.105 29.672H323.161C322.564 23.6987 321.753 19.0053 320.729 15.592C319.705 12.0933 317.913 9.576 315.353 8.04C312.793 6.504 308.825 5.736 303.449 5.736H296.537V78.568C296.537 81.9813 296.836 84.5413 297.433 86.248C298.116 87.9547 299.396 89.1067 301.273 89.704C303.15 90.3013 305.881 90.6853 309.465 90.856V93.416C307.246 93.2453 304.43 93.16 301.017 93.16C297.604 93.0747 294.148 93.032 290.649 93.032C286.809 93.032 283.182 93.0747 279.769 93.16C276.441 93.16 273.753 93.2453 271.705 93.416V90.856C275.289 90.6853 278.02 90.3013 279.897 89.704C281.774 89.1067 283.012 87.9547 283.609 86.248C284.292 84.5413 284.633 81.9813 284.633 78.568V5.736H277.721C272.43 5.736 268.462 6.504 265.817 8.04C263.257 9.576 261.465 12.0933 260.441 15.592C259.417 19.0053 258.606 23.6987 258.009 29.672H255.065C255.236 28.3067 255.321 26.728 255.321 24.936C255.406 23.144 255.449 21.224 255.449 19.176C255.449 17.5547 255.364 15.2507 255.193 12.264C255.108 9.19201 254.894 6.03467 254.553 2.79201C258.137 2.87734 262.02 2.96267 266.201 3.048C270.468 3.13334 274.734 3.176 279.001 3.176C283.268 3.176 287.15 3.176 290.649 3.176C294.148 3.176 297.988 3.176 302.169 3.176C306.436 3.176 310.702 3.13334 314.969 3.048C319.236 2.96267 323.118 2.87734 326.617 2.79201Z"/>
<path d="M365.685 2.152L396.917 82.664C398.197 85.9067 399.648 88.0827 401.269 89.192C402.89 90.216 404.384 90.7707 405.749 90.856V93.416C404.042 93.2453 401.952 93.16 399.477 93.16C397.002 93.0747 394.528 93.032 392.053 93.032C388.725 93.032 385.61 93.0747 382.709 93.16C379.808 93.16 377.461 93.2453 375.669 93.416V90.856C380.021 90.6853 382.794 89.96 383.989 88.68C385.184 87.3147 384.928 84.456 383.221 80.104L359.413 16.488L361.461 14.824L339.189 72.68C337.824 76.0933 337.013 78.9947 336.757 81.384C336.501 83.688 336.714 85.5227 337.397 86.888C338.165 88.2533 339.402 89.2347 341.109 89.832C342.901 90.4293 345.12 90.7707 347.765 90.856V93.416C345.376 93.2453 342.858 93.16 340.213 93.16C337.653 93.0747 335.264 93.032 333.045 93.032C330.912 93.032 329.077 93.0747 327.541 93.16C326.09 93.16 324.725 93.2453 323.445 93.416V90.856C325.152 90.4293 326.901 89.448 328.693 87.912C330.485 86.2907 332.106 83.56 333.557 79.72L363.637 2.152C363.978 2.152 364.32 2.152 364.661 2.152C365.002 2.152 365.344 2.152 365.685 2.152ZM381.301 56.552V59.112H343.157L344.437 56.552H381.301Z"/>
<path d="M474.367 2.79201C474.026 6.03467 473.77 9.19201 473.599 12.264C473.514 15.2507 473.471 17.5547 473.471 19.176C473.471 21.224 473.514 23.144 473.599 24.936C473.684 26.728 473.77 28.3067 473.855 29.672H470.911C470.314 23.6987 469.503 19.0053 468.479 15.592C467.455 12.0933 465.663 9.576 463.103 8.04C460.543 6.504 456.575 5.736 451.199 5.736H444.287V78.568C444.287 81.9813 444.586 84.5413 445.183 86.248C445.866 87.9547 447.146 89.1067 449.023 89.704C450.9 90.3013 453.631 90.6853 457.215 90.856V93.416C454.996 93.2453 452.18 93.16 448.767 93.16C445.354 93.0747 441.898 93.032 438.399 93.032C434.559 93.032 430.932 93.0747 427.519 93.16C424.191 93.16 421.503 93.2453 419.455 93.416V90.856C423.039 90.6853 425.77 90.3013 427.647 89.704C429.524 89.1067 430.762 87.9547 431.359 86.248C432.042 84.5413 432.383 81.9813 432.383 78.568V5.736H425.471C420.18 5.736 416.212 6.504 413.567 8.04C411.007 9.576 409.215 12.0933 408.191 15.592C407.167 19.0053 406.356 23.6987 405.759 29.672H402.815C402.986 28.3067 403.071 26.728 403.071 24.936C403.156 23.144 403.199 21.224 403.199 19.176C403.199 17.5547 403.114 15.2507 402.943 12.264C402.858 9.19201 402.644 6.03467 402.303 2.79201C405.887 2.87734 409.77 2.96267 413.951 3.048C418.218 3.13334 422.484 3.176 426.751 3.176C431.018 3.176 434.9 3.176 438.399 3.176C441.898 3.176 445.738 3.176 449.919 3.176C454.186 3.176 458.452 3.13334 462.719 3.048C466.986 2.96267 470.868 2.87734 474.367 2.79201Z"/>
<path d="M513.435 2.152L544.667 82.664C545.947 85.9067 547.398 88.0827 549.019 89.192C550.64 90.216 552.134 90.7707 553.499 90.856V93.416C551.792 93.2453 549.702 93.16 547.227 93.16C544.752 93.0747 542.278 93.032 539.803 93.032C536.475 93.032 533.36 93.0747 530.459 93.16C527.558 93.16 525.211 93.2453 523.419 93.416V90.856C527.771 90.6853 530.544 89.96 531.739 88.68C532.934 87.3147 532.678 84.456 530.971 80.104L507.163 16.488L509.211 14.824L486.939 72.68C485.574 76.0933 484.763 78.9947 484.507 81.384C484.251 83.688 484.464 85.5227 485.147 86.888C485.915 88.2533 487.152 89.2347 488.859 89.832C490.651 90.4293 492.87 90.7707 495.515 90.856V93.416C493.126 93.2453 490.608 93.16 487.963 93.16C485.403 93.0747 483.014 93.032 480.795 93.032C478.662 93.032 476.827 93.0747 475.291 93.16C473.84 93.16 472.475 93.2453 471.195 93.416V90.856C472.902 90.4293 474.651 89.448 476.443 87.912C478.235 86.2907 479.856 83.56 481.307 79.72L511.387 2.152C511.728 2.152 512.07 2.152 512.411 2.152C512.752 2.152 513.094 2.152 513.435 2.152ZM529.051 56.552V59.112H490.907L492.187 56.552H529.051Z"/>
</mask>
<path d="M41.704 1C47.336 1 51.944 1.85334 55.528 3.56001C59.1973 5.18134 62.44 7.10134 65.256 9.32001C66.9627 10.6 68.2427 10.7707 69.096 9.832C70.0347 8.808 70.6747 6.46134 71.016 2.79201H73.96C73.7893 5.94934 73.6613 9.78934 73.576 14.312C73.4907 18.8347 73.448 24.808 73.448 32.232H70.504C69.9067 28.5627 69.352 25.6613 68.84 23.528C68.328 21.3093 67.688 19.432 66.92 17.896C66.2373 16.36 65.2987 14.824 64.104 13.288C61.4587 9.78933 58.1307 7.272 54.12 5.736C50.1093 4.11467 45.8853 3.304 41.448 3.304C37.2667 3.304 33.4693 4.37067 30.056 6.50401C26.728 8.552 23.8267 11.5387 21.352 15.464C18.9627 19.3893 17.0853 24.1253 15.72 29.672C14.44 35.2187 13.8 41.448 13.8 48.36C13.8 55.528 14.5253 61.8853 15.976 67.432C17.4267 72.8933 19.432 77.5013 21.992 81.256C24.6373 85.0107 27.7093 87.8693 31.208 89.832C34.792 91.7093 38.632 92.648 42.728 92.648C46.568 92.648 50.5787 91.88 54.76 90.344C58.9413 88.808 62.2267 86.3333 64.616 82.92C66.4933 80.4453 67.7733 77.7573 68.456 74.856C69.224 71.9547 69.9067 67.9013 70.504 62.696H73.448C73.448 70.4613 73.4907 76.7333 73.576 81.512C73.6613 86.2053 73.7893 90.1733 73.96 93.416H71.016C70.6747 89.7467 70.0773 87.4427 69.224 86.504C68.456 85.5653 67.1333 85.6933 65.256 86.888C62.0987 89.1067 58.728 91.0693 55.144 92.776C51.6453 94.3973 47.1227 95.208 41.576 95.208C33.4693 95.208 26.344 93.3733 20.2 89.704C14.1413 86.0347 9.40533 80.744 5.992 73.832C2.664 66.92 1 58.6 1 48.872C1 39.3147 2.74933 30.952 6.248 23.784C9.74667 16.616 14.5253 11.0267 20.584 7.01601C26.728 3.00534 33.768 1 41.704 1Z" stroke="#ECE6D8" stroke-width="2" mask="url(#path-2-outside-1_900_58)"/>
<path d="M123.685 2.152L154.917 82.664C156.197 85.9067 157.648 88.0827 159.269 89.192C160.89 90.216 162.384 90.7707 163.749 90.856V93.416C162.042 93.2453 159.952 93.16 157.477 93.16C155.002 93.0747 152.528 93.032 150.053 93.032C146.725 93.032 143.61 93.0747 140.709 93.16C137.808 93.16 135.461 93.2453 133.669 93.416V90.856C138.021 90.6853 140.794 89.96 141.989 88.68C143.184 87.3147 142.928 84.456 141.221 80.104L117.413 16.488L119.461 14.824L97.189 72.68C95.8237 76.0933 95.013 78.9947 94.757 81.384C94.501 83.688 94.7143 85.5227 95.397 86.888C96.165 88.2533 97.4023 89.2347 99.109 89.832C100.901 90.4293 103.12 90.7707 105.765 90.856V93.416C103.376 93.2453 100.858 93.16 98.213 93.16C95.653 93.0747 93.2637 93.032 91.045 93.032C88.9117 93.032 87.077 93.0747 85.541 93.16C84.0903 93.16 82.725 93.2453 81.445 93.416V90.856C83.1517 90.4293 84.901 89.448 86.693 87.912C88.485 86.2907 90.1063 83.56 91.557 79.72L121.637 2.152C121.978 2.152 122.32 2.152 122.661 2.152C123.002 2.152 123.344 2.152 123.685 2.152ZM139.301 56.552V59.112H101.157L102.437 56.552H139.301Z" stroke="#ECE6D8" stroke-width="2" mask="url(#path-2-outside-1_900_58)"/>
<path d="M246.226 2.79201V5.35201C243.325 5.43734 241.106 5.864 239.57 6.632C238.119 7.4 237.138 8.63734 236.626 10.344C236.114 12.0507 235.858 14.4827 235.858 17.64V94.056C235.346 94.056 234.834 94.056 234.322 94.056C233.895 94.056 233.426 94.056 232.914 94.056L179.154 10.984V78.568C179.154 81.64 179.41 84.072 179.922 85.864C180.519 87.5707 181.629 88.808 183.25 89.576C184.957 90.2587 187.474 90.6853 190.802 90.856V93.416C189.266 93.2453 187.261 93.16 184.786 93.16C182.311 93.0747 179.965 93.032 177.746 93.032C175.613 93.032 173.437 93.0747 171.218 93.16C169.085 93.16 167.293 93.2453 165.842 93.416V90.856C168.743 90.6853 170.919 90.2587 172.37 89.576C173.906 88.808 174.93 87.5707 175.442 85.864C175.954 84.072 176.21 81.64 176.21 78.568V16.36C176.21 13.2027 175.954 10.8987 175.442 9.44801C174.93 7.91201 173.906 6.88801 172.37 6.37601C170.919 5.77867 168.743 5.43734 165.842 5.35201V2.79201C167.293 2.87734 169.085 2.96267 171.218 3.048C173.437 3.13334 175.613 3.176 177.746 3.176C179.623 3.176 181.415 3.13334 183.122 3.048C184.829 2.96267 186.365 2.87734 187.73 2.79201L232.914 72.424V17.64C232.914 14.4827 232.615 12.0507 232.018 10.344C231.506 8.63734 230.397 7.4 228.69 6.632C227.069 5.864 224.594 5.43734 221.266 5.35201V2.79201C222.802 2.87734 224.807 2.96267 227.282 3.048C229.842 3.13334 232.189 3.176 234.322 3.176C236.541 3.176 238.717 3.13334 240.85 3.048C243.069 2.96267 244.861 2.87734 246.226 2.79201Z" stroke="#ECE6D8" stroke-width="2" mask="url(#path-2-outside-1_900_58)"/>
<path d="M326.617 2.79201C326.276 6.03467 326.02 9.19201 325.849 12.264C325.764 15.2507 325.721 17.5547 325.721 19.176C325.721 21.224 325.764 23.144 325.849 24.936C325.934 26.728 326.02 28.3067 326.105 29.672H323.161C322.564 23.6987 321.753 19.0053 320.729 15.592C319.705 12.0933 317.913 9.576 315.353 8.04C312.793 6.504 308.825 5.736 303.449 5.736H296.537V78.568C296.537 81.9813 296.836 84.5413 297.433 86.248C298.116 87.9547 299.396 89.1067 301.273 89.704C303.15 90.3013 305.881 90.6853 309.465 90.856V93.416C307.246 93.2453 304.43 93.16 301.017 93.16C297.604 93.0747 294.148 93.032 290.649 93.032C286.809 93.032 283.182 93.0747 279.769 93.16C276.441 93.16 273.753 93.2453 271.705 93.416V90.856C275.289 90.6853 278.02 90.3013 279.897 89.704C281.774 89.1067 283.012 87.9547 283.609 86.248C284.292 84.5413 284.633 81.9813 284.633 78.568V5.736H277.721C272.43 5.736 268.462 6.504 265.817 8.04C263.257 9.576 261.465 12.0933 260.441 15.592C259.417 19.0053 258.606 23.6987 258.009 29.672H255.065C255.236 28.3067 255.321 26.728 255.321 24.936C255.406 23.144 255.449 21.224 255.449 19.176C255.449 17.5547 255.364 15.2507 255.193 12.264C255.108 9.19201 254.894 6.03467 254.553 2.79201C258.137 2.87734 262.02 2.96267 266.201 3.048C270.468 3.13334 274.734 3.176 279.001 3.176C283.268 3.176 287.15 3.176 290.649 3.176C294.148 3.176 297.988 3.176 302.169 3.176C306.436 3.176 310.702 3.13334 314.969 3.048C319.236 2.96267 323.118 2.87734 326.617 2.79201Z" stroke="#ECE6D8" stroke-width="2" mask="url(#path-2-outside-1_900_58)"/>
<path d="M365.685 2.152L396.917 82.664C398.197 85.9067 399.648 88.0827 401.269 89.192C402.89 90.216 404.384 90.7707 405.749 90.856V93.416C404.042 93.2453 401.952 93.16 399.477 93.16C397.002 93.0747 394.528 93.032 392.053 93.032C388.725 93.032 385.61 93.0747 382.709 93.16C379.808 93.16 377.461 93.2453 375.669 93.416V90.856C380.021 90.6853 382.794 89.96 383.989 88.68C385.184 87.3147 384.928 84.456 383.221 80.104L359.413 16.488L361.461 14.824L339.189 72.68C337.824 76.0933 337.013 78.9947 336.757 81.384C336.501 83.688 336.714 85.5227 337.397 86.888C338.165 88.2533 339.402 89.2347 341.109 89.832C342.901 90.4293 345.12 90.7707 347.765 90.856V93.416C345.376 93.2453 342.858 93.16 340.213 93.16C337.653 93.0747 335.264 93.032 333.045 93.032C330.912 93.032 329.077 93.0747 327.541 93.16C326.09 93.16 324.725 93.2453 323.445 93.416V90.856C325.152 90.4293 326.901 89.448 328.693 87.912C330.485 86.2907 332.106 83.56 333.557 79.72L363.637 2.152C363.978 2.152 364.32 2.152 364.661 2.152C365.002 2.152 365.344 2.152 365.685 2.152ZM381.301 56.552V59.112H343.157L344.437 56.552H381.301Z" stroke="#ECE6D8" stroke-width="2" mask="url(#path-2-outside-1_900_58)"/>
<path d="M474.367 2.79201C474.026 6.03467 473.77 9.19201 473.599 12.264C473.514 15.2507 473.471 17.5547 473.471 19.176C473.471 21.224 473.514 23.144 473.599 24.936C473.684 26.728 473.77 28.3067 473.855 29.672H470.911C470.314 23.6987 469.503 19.0053 468.479 15.592C467.455 12.0933 465.663 9.576 463.103 8.04C460.543 6.504 456.575 5.736 451.199 5.736H444.287V78.568C444.287 81.9813 444.586 84.5413 445.183 86.248C445.866 87.9547 447.146 89.1067 449.023 89.704C450.9 90.3013 453.631 90.6853 457.215 90.856V93.416C454.996 93.2453 452.18 93.16 448.767 93.16C445.354 93.0747 441.898 93.032 438.399 93.032C434.559 93.032 430.932 93.0747 427.519 93.16C424.191 93.16 421.503 93.2453 419.455 93.416V90.856C423.039 90.6853 425.77 90.3013 427.647 89.704C429.524 89.1067 430.762 87.9547 431.359 86.248C432.042 84.5413 432.383 81.9813 432.383 78.568V5.736H425.471C420.18 5.736 416.212 6.504 413.567 8.04C411.007 9.576 409.215 12.0933 408.191 15.592C407.167 19.0053 406.356 23.6987 405.759 29.672H402.815C402.986 28.3067 403.071 26.728 403.071 24.936C403.156 23.144 403.199 21.224 403.199 19.176C403.199 17.5547 403.114 15.2507 402.943 12.264C402.858 9.19201 402.644 6.03467 402.303 2.79201C405.887 2.87734 409.77 2.96267 413.951 3.048C418.218 3.13334 422.484 3.176 426.751 3.176C431.018 3.176 434.9 3.176 438.399 3.176C441.898 3.176 445.738 3.176 449.919 3.176C454.186 3.176 458.452 3.13334 462.719 3.048C466.986 2.96267 470.868 2.87734 474.367 2.79201Z" stroke="#ECE6D8" stroke-width="2" mask="url(#path-2-outside-1_900_58)"/>
<path d="M513.435 2.152L544.667 82.664C545.947 85.9067 547.398 88.0827 549.019 89.192C550.64 90.216 552.134 90.7707 553.499 90.856V93.416C551.792 93.2453 549.702 93.16 547.227 93.16C544.752 93.0747 542.278 93.032 539.803 93.032C536.475 93.032 533.36 93.0747 530.459 93.16C527.558 93.16 525.211 93.2453 523.419 93.416V90.856C527.771 90.6853 530.544 89.96 531.739 88.68C532.934 87.3147 532.678 84.456 530.971 80.104L507.163 16.488L509.211 14.824L486.939 72.68C485.574 76.0933 484.763 78.9947 484.507 81.384C484.251 83.688 484.464 85.5227 485.147 86.888C485.915 88.2533 487.152 89.2347 488.859 89.832C490.651 90.4293 492.87 90.7707 495.515 90.856V93.416C493.126 93.2453 490.608 93.16 487.963 93.16C485.403 93.0747 483.014 93.032 480.795 93.032C478.662 93.032 476.827 93.0747 475.291 93.16C473.84 93.16 472.475 93.2453 471.195 93.416V90.856C472.902 90.4293 474.651 89.448 476.443 87.912C478.235 86.2907 479.856 83.56 481.307 79.72L511.387 2.152C511.728 2.152 512.07 2.152 512.411 2.152C512.752 2.152 513.094 2.152 513.435 2.152ZM529.051 56.552V59.112H490.907L492.187 56.552H529.051Z" stroke="#ECE6D8" stroke-width="2" mask="url(#path-2-outside-1_900_58)"/>
</svg>
