<svg width="929" height="160" viewBox="0 0 929 160" fill="none" xmlns="http://www.w3.org/2000/svg">
<path d="M74 79.5C74 85.8513 68.8513 91 62.5 91C56.1487 91 51 85.8513 51 79.5C51 73.1487 56.1487 68 62.5 68C68.8513 68 74 73.1487 74 79.5Z" fill="#7A5F0E"/>
<mask id="path-2-outside-1_956_113" maskUnits="userSpaceOnUse" x="0" y="0" width="929" height="160" fill="black">
<rect fill="white" width="929" height="160"/>
<path d="M69.2944 1C78.744 1 86.4754 2.43116 92.4888 5.29349C98.6453 8.01269 104.086 11.2328 108.811 14.9538C111.674 17.1006 113.822 17.3868 115.254 15.8125C116.829 14.0951 117.902 10.1594 118.475 4.00545H123.415C123.128 9.30074 122.913 15.741 122.77 23.3261C122.627 30.9112 122.556 40.9294 122.556 53.3804H117.616C116.614 47.2265 115.683 42.3605 114.824 38.7826C113.965 35.0616 112.891 31.913 111.603 29.337C110.457 26.7609 108.882 24.1848 106.878 21.6087C102.439 15.7409 96.8556 11.519 90.1264 8.94293C83.3972 6.22373 76.31 4.86413 68.8649 4.86413C61.8493 4.86413 55.4781 6.65308 49.7511 10.231C44.1672 13.6658 39.2993 18.6748 35.1472 25.2582C31.1383 31.8415 27.9885 39.7844 25.6977 49.087C23.5501 58.3895 22.4762 68.837 22.4762 80.4293C22.4762 92.4511 23.6932 103.113 26.1272 112.416C28.5612 121.575 31.9258 129.303 36.221 135.601C40.6595 141.898 45.8138 146.692 51.6839 149.984C57.6973 153.132 64.1401 154.707 71.0125 154.707C77.4554 154.707 84.1846 153.418 91.2002 150.842C98.2158 148.266 103.728 144.116 107.737 138.391C110.887 134.241 113.034 129.733 114.18 124.867C115.468 120.001 116.614 113.203 117.616 104.473H122.556C122.556 117.496 122.627 128.015 122.77 136.03C122.913 143.901 123.128 150.556 123.415 155.995H118.475C117.902 149.841 116.9 145.976 115.468 144.402C114.18 142.828 111.961 143.043 108.811 145.046C103.513 148.767 97.8578 152.059 91.8445 154.921C85.9743 157.64 78.386 159 69.0797 159C55.4781 159 43.523 155.923 33.2144 149.769C23.0489 143.615 15.1027 134.742 9.37573 123.149C3.79191 111.557 1 97.6033 1 81.288C1 65.2591 3.93509 51.2337 9.80526 39.212C15.6754 27.1902 23.6932 17.8161 33.8586 11.0897C44.1672 4.36323 55.9792 1 69.2944 1Z"/>
<path d="M206.845 2.93207L259.247 137.962C261.394 143.4 263.828 147.05 266.549 148.91C269.269 150.628 271.775 151.558 274.065 151.701V155.995C271.202 155.708 267.694 155.565 263.542 155.565C259.39 155.422 255.238 155.351 251.086 155.351C245.502 155.351 240.276 155.422 235.408 155.565C230.54 155.565 226.603 155.708 223.596 155.995V151.701C230.898 151.415 235.551 150.198 237.556 148.052C239.56 145.762 239.131 140.967 236.267 133.668L196.321 26.9756L199.758 24.1848L162.389 121.217C160.098 126.942 158.738 131.808 158.308 135.815C157.879 139.679 158.237 142.756 159.382 145.046C160.671 147.336 162.747 148.982 165.61 149.984C168.617 150.986 172.34 151.558 176.778 151.701V155.995C172.769 155.708 168.545 155.565 164.107 155.565C159.812 155.422 155.803 155.351 152.08 155.351C148.501 155.351 145.423 155.422 142.846 155.565C140.412 155.565 138.121 155.708 135.973 155.995V151.701C138.837 150.986 141.772 149.34 144.778 146.764C147.785 144.044 150.505 139.465 152.939 133.024L203.409 2.93207C203.981 2.93207 204.554 2.93207 205.127 2.93207C205.699 2.93207 206.272 2.93207 206.845 2.93207ZM233.046 94.1685V98.462H169.047L171.194 94.1685H233.046Z"/>
<path d="M412.448 4.00545V8.29892C407.58 8.44203 403.857 9.15761 401.28 10.4457C398.846 11.7337 397.2 13.8089 396.341 16.6712C395.482 19.5335 395.052 23.6123 395.052 28.9076V157.068C394.193 157.068 393.334 157.068 392.475 157.068C391.759 157.068 390.972 157.068 390.113 157.068L299.912 17.7446V131.092C299.912 136.245 300.342 140.323 301.201 143.329C302.203 146.191 304.064 148.266 306.785 149.554C309.648 150.699 313.872 151.415 319.456 151.701V155.995C316.879 155.708 313.514 155.565 309.362 155.565C305.21 155.422 301.272 155.351 297.55 155.351C293.971 155.351 290.32 155.422 286.597 155.565C283.018 155.565 280.011 155.708 277.577 155.995V151.701C282.445 151.415 286.096 150.699 288.53 149.554C291.107 148.266 292.825 146.191 293.684 143.329C294.543 140.323 294.973 136.245 294.973 131.092V26.7609C294.973 21.4656 294.543 17.6015 293.684 15.1685C292.825 12.5924 291.107 10.875 288.53 10.0163C286.096 9.0145 282.445 8.44203 277.577 8.29892V4.00545C280.011 4.14856 283.018 4.29168 286.597 4.43479C290.32 4.5779 293.971 4.64946 297.55 4.64946C300.7 4.64946 303.706 4.5779 306.57 4.43479C309.433 4.29168 312.011 4.14856 314.301 4.00545L390.113 120.788V28.9076C390.113 23.6123 389.611 19.5335 388.609 16.6712C387.75 13.8089 385.889 11.7337 383.025 10.4457C380.305 9.15761 376.153 8.44203 370.569 8.29892V4.00545C373.146 4.14856 376.511 4.29168 380.663 4.43479C384.958 4.5779 388.896 4.64946 392.475 4.64946C396.197 4.64946 399.848 4.5779 403.428 4.43479C407.15 4.29168 410.157 4.14856 412.448 4.00545Z"/>
<path d="M547.33 4.00545C546.758 9.44385 546.328 14.7391 546.042 19.8913C545.899 24.9004 545.827 28.7645 545.827 31.4837C545.827 34.9185 545.899 38.1386 546.042 41.144C546.185 44.1495 546.328 46.7971 546.471 49.087H541.532C540.53 39.0688 539.169 31.1975 537.451 25.4728C535.733 19.6051 532.726 15.3832 528.431 12.8071C524.136 10.231 517.478 8.94293 508.458 8.94293H496.861V131.092C496.861 136.817 497.362 141.111 498.365 143.973C499.51 146.835 501.658 148.767 504.807 149.769C507.957 150.771 512.539 151.415 518.552 151.701V155.995C514.83 155.708 510.105 155.565 504.378 155.565C498.651 155.422 492.852 155.351 486.982 155.351C480.539 155.351 474.454 155.422 468.727 155.565C463.143 155.565 458.633 155.708 455.197 155.995V151.701C461.211 151.415 465.792 150.771 468.942 149.769C472.092 148.767 474.168 146.835 475.17 143.973C476.316 141.111 476.888 136.817 476.888 131.092V8.94293H465.291C456.414 8.94293 449.757 10.231 445.318 12.8071C441.023 15.3832 438.016 19.6051 436.298 25.4728C434.58 31.1975 433.22 39.0688 432.218 49.087H427.278C427.565 46.7971 427.708 44.1495 427.708 41.144C427.851 38.1386 427.922 34.9185 427.922 31.4837C427.922 28.7645 427.779 24.9004 427.493 19.8913C427.35 14.7391 426.992 9.44385 426.419 4.00545C432.432 4.14856 438.947 4.29168 445.962 4.43479C453.121 4.5779 460.28 4.64946 467.439 4.64946C474.597 4.64946 481.112 4.64946 486.982 4.64946C492.852 4.64946 499.295 4.64946 506.311 4.64946C513.469 4.64946 520.628 4.5779 527.787 4.43479C534.946 4.29168 541.46 4.14856 547.33 4.00545Z"/>
<path d="M612.88 2.93207L665.282 137.962C667.429 143.4 669.863 147.05 672.584 148.91C675.304 150.628 677.81 151.558 680.1 151.701V155.995C677.237 155.708 673.729 155.565 669.577 155.565C665.425 155.422 661.273 155.351 657.121 155.351C651.537 155.351 646.311 155.422 641.443 155.565C636.575 155.565 632.638 155.708 629.631 155.995V151.701C636.933 151.415 641.586 150.198 643.591 148.052C645.595 145.762 645.166 140.967 642.302 133.668L602.356 26.9756L605.793 24.1848L568.424 121.217C566.133 126.942 564.773 131.808 564.344 135.815C563.914 139.679 564.272 142.756 565.417 145.046C566.706 147.336 568.782 148.982 571.645 149.984C574.652 150.986 578.375 151.558 582.813 151.701V155.995C578.804 155.708 574.581 155.565 570.142 155.565C565.847 155.422 561.838 155.351 558.115 155.351C554.536 155.351 551.458 155.422 548.881 155.565C546.447 155.565 544.156 155.708 542.008 155.995V151.701C544.872 150.986 547.807 149.34 550.813 146.764C553.82 144.044 556.54 139.465 558.974 133.024L609.444 2.93207C610.016 2.93207 610.589 2.93207 611.162 2.93207C611.734 2.93207 612.307 2.93207 612.88 2.93207ZM639.081 94.1685V98.462H575.082L577.229 94.1685H639.081Z"/>
<path d="M795.23 4.00545C794.657 9.44385 794.228 14.7391 793.941 19.8913C793.798 24.9004 793.727 28.7645 793.727 31.4837C793.727 34.9185 793.798 38.1386 793.941 41.144C794.084 44.1495 794.228 46.7971 794.371 49.087H789.431C788.429 39.0688 787.069 31.1975 785.351 25.4728C783.633 19.6051 780.626 15.3832 776.331 12.8071C772.036 10.231 765.378 8.94293 756.358 8.94293H744.761V131.092C744.761 136.817 745.262 141.111 746.264 143.973C747.409 146.835 749.557 148.767 752.707 149.769C755.857 150.771 760.438 151.415 766.452 151.701V155.995C762.729 155.708 758.004 155.565 752.277 155.565C746.55 155.422 740.752 155.351 734.882 155.351C728.439 155.351 722.354 155.422 716.627 155.565C711.043 155.565 706.533 155.708 703.097 155.995V151.701C709.11 151.415 713.692 150.771 716.842 149.769C719.991 148.767 722.067 146.835 723.07 143.973C724.215 141.111 724.788 136.817 724.788 131.092V8.94293H713.191C704.314 8.94293 697.656 10.231 693.218 12.8071C688.922 15.3832 685.916 19.6051 684.198 25.4728C682.48 31.1975 681.119 39.0688 680.117 49.087H675.178C675.464 46.7971 675.607 44.1495 675.607 41.144C675.75 38.1386 675.822 34.9185 675.822 31.4837C675.822 28.7645 675.679 24.9004 675.392 19.8913C675.249 14.7391 674.891 9.44385 674.319 4.00545C680.332 4.14856 686.846 4.29168 693.862 4.43479C701.021 4.5779 708.18 4.64946 715.338 4.64946C722.497 4.64946 729.011 4.64946 734.882 4.64946C740.752 4.64946 747.195 4.64946 754.21 4.64946C761.369 4.64946 768.528 4.5779 775.686 4.43479C782.845 4.29168 789.36 4.14856 795.23 4.00545Z"/>
<path d="M860.779 2.93207L913.181 137.962C915.329 143.4 917.763 147.05 920.483 148.91C923.204 150.628 925.709 151.558 928 151.701V155.995C925.137 155.708 921.629 155.565 917.477 155.565C913.325 155.422 909.172 155.351 905.02 155.351C899.437 155.351 894.211 155.422 889.343 155.565C884.475 155.565 880.538 155.708 877.531 155.995V151.701C884.833 151.415 889.486 150.198 891.49 148.052C893.495 145.762 893.065 140.967 890.202 133.668L850.256 26.9756L853.692 24.1848L816.324 121.217C814.033 126.942 812.673 131.808 812.243 135.815C811.814 139.679 812.171 142.756 813.317 145.046C814.605 147.336 816.681 148.982 819.545 149.984C822.552 150.986 826.274 151.558 830.713 151.701V155.995C826.704 155.708 822.48 155.565 818.042 155.565C813.746 155.422 809.738 155.351 806.015 155.351C802.436 155.351 799.357 155.422 796.78 155.565C794.346 155.565 792.055 155.708 789.908 155.995V151.701C792.771 150.986 795.706 149.34 798.713 146.764C801.72 144.044 804.44 139.465 806.874 133.024L857.343 2.93207C857.916 2.93207 858.489 2.93207 859.061 2.93207C859.634 2.93207 860.207 2.93207 860.779 2.93207ZM886.98 94.1685V98.462H822.981L825.129 94.1685H886.98Z"/>
</mask>
<path d="M69.2944 1C78.744 1 86.4754 2.43116 92.4888 5.29349C98.6453 8.01269 104.086 11.2328 108.811 14.9538C111.674 17.1006 113.822 17.3868 115.254 15.8125C116.829 14.0951 117.902 10.1594 118.475 4.00545H123.415C123.128 9.30074 122.913 15.741 122.77 23.3261C122.627 30.9112 122.556 40.9294 122.556 53.3804H117.616C116.614 47.2265 115.683 42.3605 114.824 38.7826C113.965 35.0616 112.891 31.913 111.603 29.337C110.457 26.7609 108.882 24.1848 106.878 21.6087C102.439 15.7409 96.8556 11.519 90.1264 8.94293C83.3972 6.22373 76.31 4.86413 68.8649 4.86413C61.8493 4.86413 55.4781 6.65308 49.7511 10.231C44.1672 13.6658 39.2993 18.6748 35.1472 25.2582C31.1383 31.8415 27.9885 39.7844 25.6977 49.087C23.5501 58.3895 22.4762 68.837 22.4762 80.4293C22.4762 92.4511 23.6932 103.113 26.1272 112.416C28.5612 121.575 31.9258 129.303 36.221 135.601C40.6595 141.898 45.8138 146.692 51.6839 149.984C57.6973 153.132 64.1401 154.707 71.0125 154.707C77.4554 154.707 84.1846 153.418 91.2002 150.842C98.2158 148.266 103.728 144.116 107.737 138.391C110.887 134.241 113.034 129.733 114.18 124.867C115.468 120.001 116.614 113.203 117.616 104.473H122.556C122.556 117.496 122.627 128.015 122.77 136.03C122.913 143.901 123.128 150.556 123.415 155.995H118.475C117.902 149.841 116.9 145.976 115.468 144.402C114.18 142.828 111.961 143.043 108.811 145.046C103.513 148.767 97.8578 152.059 91.8445 154.921C85.9743 157.64 78.386 159 69.0797 159C55.4781 159 43.523 155.923 33.2144 149.769C23.0489 143.615 15.1027 134.742 9.37573 123.149C3.79191 111.557 1 97.6033 1 81.288C1 65.2591 3.93509 51.2337 9.80526 39.212C15.6754 27.1902 23.6932 17.8161 33.8586 11.0897C44.1672 4.36323 55.9792 1 69.2944 1Z" stroke="#ECE6D8" stroke-width="2" mask="url(#path-2-outside-1_956_113)"/>
<path d="M206.845 2.93207L259.247 137.962C261.394 143.4 263.828 147.05 266.549 148.91C269.269 150.628 271.775 151.558 274.065 151.701V155.995C271.202 155.708 267.694 155.565 263.542 155.565C259.39 155.422 255.238 155.351 251.086 155.351C245.502 155.351 240.276 155.422 235.408 155.565C230.54 155.565 226.603 155.708 223.596 155.995V151.701C230.898 151.415 235.551 150.198 237.556 148.052C239.56 145.762 239.131 140.967 236.267 133.668L196.321 26.9756L199.758 24.1848L162.389 121.217C160.098 126.942 158.738 131.808 158.308 135.815C157.879 139.679 158.237 142.756 159.382 145.046C160.671 147.336 162.747 148.982 165.61 149.984C168.617 150.986 172.34 151.558 176.778 151.701V155.995C172.769 155.708 168.545 155.565 164.107 155.565C159.812 155.422 155.803 155.351 152.08 155.351C148.501 155.351 145.423 155.422 142.846 155.565C140.412 155.565 138.121 155.708 135.973 155.995V151.701C138.837 150.986 141.772 149.34 144.778 146.764C147.785 144.044 150.505 139.465 152.939 133.024L203.409 2.93207C203.981 2.93207 204.554 2.93207 205.127 2.93207C205.699 2.93207 206.272 2.93207 206.845 2.93207ZM233.046 94.1685V98.462H169.047L171.194 94.1685H233.046Z" stroke="#ECE6D8" stroke-width="2" mask="url(#path-2-outside-1_956_113)"/>
<path d="M412.448 4.00545V8.29892C407.58 8.44203 403.857 9.15761 401.28 10.4457C398.846 11.7337 397.2 13.8089 396.341 16.6712C395.482 19.5335 395.052 23.6123 395.052 28.9076V157.068C394.193 157.068 393.334 157.068 392.475 157.068C391.759 157.068 390.972 157.068 390.113 157.068L299.912 17.7446V131.092C299.912 136.245 300.342 140.323 301.201 143.329C302.203 146.191 304.064 148.266 306.785 149.554C309.648 150.699 313.872 151.415 319.456 151.701V155.995C316.879 155.708 313.514 155.565 309.362 155.565C305.21 155.422 301.272 155.351 297.55 155.351C293.971 155.351 290.32 155.422 286.597 155.565C283.018 155.565 280.011 155.708 277.577 155.995V151.701C282.445 151.415 286.096 150.699 288.53 149.554C291.107 148.266 292.825 146.191 293.684 143.329C294.543 140.323 294.973 136.245 294.973 131.092V26.7609C294.973 21.4656 294.543 17.6015 293.684 15.1685C292.825 12.5924 291.107 10.875 288.53 10.0163C286.096 9.0145 282.445 8.44203 277.577 8.29892V4.00545C280.011 4.14856 283.018 4.29168 286.597 4.43479C290.32 4.5779 293.971 4.64946 297.55 4.64946C300.7 4.64946 303.706 4.5779 306.57 4.43479C309.433 4.29168 312.011 4.14856 314.301 4.00545L390.113 120.788V28.9076C390.113 23.6123 389.611 19.5335 388.609 16.6712C387.75 13.8089 385.889 11.7337 383.025 10.4457C380.305 9.15761 376.153 8.44203 370.569 8.29892V4.00545C373.146 4.14856 376.511 4.29168 380.663 4.43479C384.958 4.5779 388.896 4.64946 392.475 4.64946C396.197 4.64946 399.848 4.5779 403.428 4.43479C407.15 4.29168 410.157 4.14856 412.448 4.00545Z" stroke="#ECE6D8" stroke-width="2" mask="url(#path-2-outside-1_956_113)"/>
<path d="M547.33 4.00545C546.758 9.44385 546.328 14.7391 546.042 19.8913C545.899 24.9004 545.827 28.7645 545.827 31.4837C545.827 34.9185 545.899 38.1386 546.042 41.144C546.185 44.1495 546.328 46.7971 546.471 49.087H541.532C540.53 39.0688 539.169 31.1975 537.451 25.4728C535.733 19.6051 532.726 15.3832 528.431 12.8071C524.136 10.231 517.478 8.94293 508.458 8.94293H496.861V131.092C496.861 136.817 497.362 141.111 498.365 143.973C499.51 146.835 501.658 148.767 504.807 149.769C507.957 150.771 512.539 151.415 518.552 151.701V155.995C514.83 155.708 510.105 155.565 504.378 155.565C498.651 155.422 492.852 155.351 486.982 155.351C480.539 155.351 474.454 155.422 468.727 155.565C463.143 155.565 458.633 155.708 455.197 155.995V151.701C461.211 151.415 465.792 150.771 468.942 149.769C472.092 148.767 474.168 146.835 475.17 143.973C476.316 141.111 476.888 136.817 476.888 131.092V8.94293H465.291C456.414 8.94293 449.757 10.231 445.318 12.8071C441.023 15.3832 438.016 19.6051 436.298 25.4728C434.58 31.1975 433.22 39.0688 432.218 49.087H427.278C427.565 46.7971 427.708 44.1495 427.708 41.144C427.851 38.1386 427.922 34.9185 427.922 31.4837C427.922 28.7645 427.779 24.9004 427.493 19.8913C427.35 14.7391 426.992 9.44385 426.419 4.00545C432.432 4.14856 438.947 4.29168 445.962 4.43479C453.121 4.5779 460.28 4.64946 467.439 4.64946C474.597 4.64946 481.112 4.64946 486.982 4.64946C492.852 4.64946 499.295 4.64946 506.311 4.64946C513.469 4.64946 520.628 4.5779 527.787 4.43479C534.946 4.29168 541.46 4.14856 547.33 4.00545Z" stroke="#ECE6D8" stroke-width="2" mask="url(#path-2-outside-1_956_113)"/>
<path d="M612.88 2.93207L665.282 137.962C667.429 143.4 669.863 147.05 672.584 148.91C675.304 150.628 677.81 151.558 680.1 151.701V155.995C677.237 155.708 673.729 155.565 669.577 155.565C665.425 155.422 661.273 155.351 657.121 155.351C651.537 155.351 646.311 155.422 641.443 155.565C636.575 155.565 632.638 155.708 629.631 155.995V151.701C636.933 151.415 641.586 150.198 643.591 148.052C645.595 145.762 645.166 140.967 642.302 133.668L602.356 26.9756L605.793 24.1848L568.424 121.217C566.133 126.942 564.773 131.808 564.344 135.815C563.914 139.679 564.272 142.756 565.417 145.046C566.706 147.336 568.782 148.982 571.645 149.984C574.652 150.986 578.375 151.558 582.813 151.701V155.995C578.804 155.708 574.581 155.565 570.142 155.565C565.847 155.422 561.838 155.351 558.115 155.351C554.536 155.351 551.458 155.422 548.881 155.565C546.447 155.565 544.156 155.708 542.008 155.995V151.701C544.872 150.986 547.807 149.34 550.813 146.764C553.82 144.044 556.54 139.465 558.974 133.024L609.444 2.93207C610.016 2.93207 610.589 2.93207 611.162 2.93207C611.734 2.93207 612.307 2.93207 612.88 2.93207ZM639.081 94.1685V98.462H575.082L577.229 94.1685H639.081Z" stroke="#ECE6D8" stroke-width="2" mask="url(#path-2-outside-1_956_113)"/>
<path d="M795.23 4.00545C794.657 9.44385 794.228 14.7391 793.941 19.8913C793.798 24.9004 793.727 28.7645 793.727 31.4837C793.727 34.9185 793.798 38.1386 793.941 41.144C794.084 44.1495 794.228 46.7971 794.371 49.087H789.431C788.429 39.0688 787.069 31.1975 785.351 25.4728C783.633 19.6051 780.626 15.3832 776.331 12.8071C772.036 10.231 765.378 8.94293 756.358 8.94293H744.761V131.092C744.761 136.817 745.262 141.111 746.264 143.973C747.409 146.835 749.557 148.767 752.707 149.769C755.857 150.771 760.438 151.415 766.452 151.701V155.995C762.729 155.708 758.004 155.565 752.277 155.565C746.55 155.422 740.752 155.351 734.882 155.351C728.439 155.351 722.354 155.422 716.627 155.565C711.043 155.565 706.533 155.708 703.097 155.995V151.701C709.11 151.415 713.692 150.771 716.842 149.769C719.991 148.767 722.067 146.835 723.07 143.973C724.215 141.111 724.788 136.817 724.788 131.092V8.94293H713.191C704.314 8.94293 697.656 10.231 693.218 12.8071C688.922 15.3832 685.916 19.6051 684.198 25.4728C682.48 31.1975 681.119 39.0688 680.117 49.087H675.178C675.464 46.7971 675.607 44.1495 675.607 41.144C675.75 38.1386 675.822 34.9185 675.822 31.4837C675.822 28.7645 675.679 24.9004 675.392 19.8913C675.249 14.7391 674.891 9.44385 674.319 4.00545C680.332 4.14856 686.846 4.29168 693.862 4.43479C701.021 4.5779 708.18 4.64946 715.338 4.64946C722.497 4.64946 729.011 4.64946 734.882 4.64946C740.752 4.64946 747.195 4.64946 754.21 4.64946C761.369 4.64946 768.528 4.5779 775.686 4.43479C782.845 4.29168 789.36 4.14856 795.23 4.00545Z" stroke="#ECE6D8" stroke-width="2" mask="url(#path-2-outside-1_956_113)"/>
<path d="M860.779 2.93207L913.181 137.962C915.329 143.4 917.763 147.05 920.483 148.91C923.204 150.628 925.709 151.558 928 151.701V155.995C925.137 155.708 921.629 155.565 917.477 155.565C913.325 155.422 909.172 155.351 905.02 155.351C899.437 155.351 894.211 155.422 889.343 155.565C884.475 155.565 880.538 155.708 877.531 155.995V151.701C884.833 151.415 889.486 150.198 891.49 148.052C893.495 145.762 893.065 140.967 890.202 133.668L850.256 26.9756L853.692 24.1848L816.324 121.217C814.033 126.942 812.673 131.808 812.243 135.815C811.814 139.679 812.171 142.756 813.317 145.046C814.605 147.336 816.681 148.982 819.545 149.984C822.552 150.986 826.274 151.558 830.713 151.701V155.995C826.704 155.708 822.48 155.565 818.042 155.565C813.746 155.422 809.738 155.351 806.015 155.351C802.436 155.351 799.357 155.422 796.78 155.565C794.346 155.565 792.055 155.708 789.908 155.995V151.701C792.771 150.986 795.706 149.34 798.713 146.764C801.72 144.044 804.44 139.465 806.874 133.024L857.343 2.93207C857.916 2.93207 858.489 2.93207 859.061 2.93207C859.634 2.93207 860.207 2.93207 860.779 2.93207ZM886.98 94.1685V98.462H822.981L825.129 94.1685H886.98Z" stroke="#ECE6D8" stroke-width="2" mask="url(#path-2-outside-1_956_113)"/>
</svg>
